# xmcd
#
# Track frame offsets:
# 150
# 15385
# 32770
# 45960
# 61935
# 77277
# 92040
# 114227
# 130977
# 147825
# 165950
# 179025
# 196695
# 214065
#
# Disc length: 3081 seconds
#
#
# Revision: 2
# Processed by: cddbd v1.5.1PL0 Copyright (c) Steve Scherf et al.
# Submitted via: FreeRIP 2.92 
#
DISCID=a70c070e
DTITLE=Zezé di Camargo and Luciano - Dois corações e uma história · Vol. 1
DYEAR=2004
DGENRE=Brega
TTITLE0=É o amor
TTITLE1=Coração está em pedaços
TTITLE2=Eu te amo (And I love her)
TTITLE3=Coração na contra-mão
TTITLE4=Quem sou eu sem ela
TTITLE5=Cara ou coroa (a cara o cruz)
TTITLE6=Águas passadas
TTITLE7=Me leva pra casa
TTITLE8=Deus
TTITLE9=Garoto de rua
TTITLE10=Muda de vida
TTITLE11=Cama de capim
TTITLE12=Leva minha timidez
TTITLE13=A estrela só
EXTD=Sony Music Columbia 5099751554424
EXTT0=
EXTT1=
EXTT2=
EXTT3=
EXTT4=
EXTT5=
EXTT6=
EXTT7=
EXTT8=
EXTT9=
EXTT10=
EXTT11=
EXTT12=
EXTT13=
PLAYORDER=
